<svg fill="#FFFFFF" id="stroke" xmlns="http://www.w3.org/2000/svg" viewBox="0 0 52 52"><title>Icon_set_DEF_outline</title><path d="M26,8c-4.8881,0-5.5012.0214-7.4216.1091a13.1813,13.1813,0,0,0-4.3695.837A9.1984,9.1984,0,0,0,8.945,14.21a13.2027,13.2027,0,0,0-.837,4.3684C8.02,20.4987,8,21.1119,8,26s.02,5.5024.108,7.4216a13.2035,13.2035,0,0,0,.837,4.37,9.206,9.206,0,0,0,5.2639,5.2639,13.2069,13.2069,0,0,0,4.3695.837C20.4987,43.98,21.1119,44,26,44s5.5024-.02,7.4216-.108a13.1936,13.1936,0,0,0,4.3684-.837,9.2135,9.2135,0,0,0,5.265-5.2639,13.2352,13.2352,0,0,0,.837-4.37C43.9786,31.5024,44,30.8892,44,26s-.0214-5.5013-.108-7.4216a13.2219,13.2219,0,0,0-.837-4.3684A9.2044,9.2044,0,0,0,37.79,8.9461a13.172,13.172,0,0,0-4.3684-.837C31.5024,8.0214,30.8893,8,26,8Zm0,3.2434c4.806,0,5.3752.018,7.2742.1046a9.9651,9.9651,0,0,1,3.3424.62,5.9614,5.9614,0,0,1,3.4167,3.4166,9.9593,9.9593,0,0,1,.62,3.3424c.0867,1.8979.1058,2.4682.1058,7.2742s-.0191,5.3764-.1058,7.2743a9.9585,9.9585,0,0,1-.62,3.3423,5.9529,5.9529,0,0,1-3.4167,3.4167,9.9276,9.9276,0,0,1-3.3424.62c-1.8978.0867-2.4671.1058-7.2742.1058s-5.3752-.0191-7.2731-.1058a9.9282,9.9282,0,0,1-3.3424-.62,5.9524,5.9524,0,0,1-3.4166-3.4167,9.9507,9.9507,0,0,1-.62-3.3423c-.0855-1.8968-.1046-2.4672-.1046-7.2743s.0191-5.3752.1046-7.2742a9.9651,9.9651,0,0,1,.62-3.3424,5.9609,5.9609,0,0,1,3.4166-3.4166,9.9873,9.9873,0,0,1,3.3424-.62C20.6248,11.2614,21.194,11.2434,26,11.2434Z"></path><path d="M26,32a6,6,0,1,1,6-6A5.9994,5.9994,0,0,1,26,32ZM26,16.757A9.2436,9.2436,0,1,0,35.2441,26,9.2431,9.2431,0,0,0,26,16.757Z"></path><path d="M37.7686,16.3914a2.1606,2.1606,0,1,1-2.1611-2.16A2.1608,2.1608,0,0,1,37.7686,16.3914Z"></path></svg>