<svg fill="#FFFFFF" id="stroke" xmlns="http://www.w3.org/2000/svg" viewBox="0 0 52 52"><title>Icon_set_DEF_outline</title><path d="M19.331,40.6205A20.4845,20.4845,0,0,1,8,37.3063a16.3809,16.3809,0,0,0,1.782.09,14.4637,14.4637,0,0,0,9.16-3.15A7.3911,7.3911,0,0,1,12.041,29.13a9.3278,9.3278,0,0,0,1.395.1147,7.6709,7.6709,0,0,0,1.9418-.25,7.2688,7.2688,0,0,1-4.2368-2.5492A7.1256,7.1256,0,0,1,9.4625,21.75v-.09a7.3108,7.3108,0,0,0,3.3345.936,7.3622,7.3622,0,0,1-2.3985-2.628,7.387,7.387,0,0,1,.1147-7.2382,20.92,20.92,0,0,0,6.7276,5.4472,20.5554,20.5554,0,0,0,8.4847,2.2748,8.2782,8.2782,0,0,1-.1822-1.6943A7.3708,7.3708,0,0,1,32.921,11.38a7.12,7.12,0,0,1,5.391,2.331,14.4675,14.4675,0,0,0,4.68-1.782A7.153,7.153,0,0,1,39.75,15.9942,14.6006,14.6006,0,0,0,44,14.8535a15.4519,15.4519,0,0,1-3.7012,3.8137c.0134.2138.0225.531.0225.9608a21.0385,21.0385,0,0,1-.8663,5.9265,21.4192,21.4192,0,0,1-2.6393,5.6767A22.3085,22.3085,0,0,1,32.5993,36.04a18.8254,18.8254,0,0,1-5.8928,3.3345,21.5468,21.5468,0,0,1-7.3755,1.2465Z"></path></svg>