<svg fill="#FFFFFF" id="stroke" xmlns="http://www.w3.org/2000/svg" viewBox="0 0 52 52"><title>Icon_set_DEF_outline</title><path d="M29.6779,29.2815a2.08,2.08,0,0,0-1.5925.9382V26.4441h-1.57V37.9992h1.57v-.8439a2.1162,2.1162,0,0,0,1.5925.9609,1.201,1.201,0,0,0,1.2438-.9848,6.1472,6.1472,0,0,0,.1624-1.7106V31.9985a6.25,6.25,0,0,0-.1624-1.7333A1.2,1.2,0,0,0,29.6779,29.2815Zm-.14,6.2586c0,.7656-.226,1.1461-.6792,1.1461a1.0985,1.0985,0,0,1-.7736-.3726V31.0625a1.0957,1.0957,0,0,1,.7736-.3737q.678,0,.6792,1.17Z"></path><path d="M34.6473,29.2815a2.2343,2.2343,0,0,0-1.8753.89,3.42,3.42,0,0,0-.468,2.015v3.026a3.3056,3.3056,0,0,0,.4919,2.0139,2.2494,2.2494,0,0,0,1.898.8905,2.1138,2.1138,0,0,0,1.8753-.9382,2.1709,2.1709,0,0,0,.3521-.9383,7.9182,7.9182,0,0,0,.0466-1.0063v-.21H35.3731v.5021c0,.1658-.0034.293-.0091.39-.009.0908-.0113.1476-.0113.1635a.6785.6785,0,0,1-.7043.6077c-.5315,0-.7951-.3975-.7951-1.1949V33.9692H36.969V32.187a3.3576,3.3576,0,0,0-.4918-2.015,2.1073,2.1073,0,0,0-1.8288-.89Zm.7508,3.4H33.85v-.7985c0-.7973.259-1.1938.7747-1.1938s.7724.3965.7724,1.1938v.7985Z"></path><path d="M23.609,35.9615c-.343.485-.6713.7258-.9848.7258-.2181,0-.3362-.1158-.35-.351a3.3856,3.3856,0,0,1-.0227-.6088V29.4008H20.7035v6.7958a3.9352,3.9352,0,0,0,.142,1.2665.92.92,0,0,0,.9836.6554,2.4916,2.4916,0,0,0,1.78-1.0541v.9371H25.18V29.4008H23.609v6.5607Z"></path><path d="M25.6479,20.5626q.75,0,.7508-1.196V15.71q0-1.2165-.7508-1.2176t-.75,1.2176v3.6564Q24.8982,20.5626,25.6479,20.5626Z"></path><path d="M15.031,28.0866H16.86v9.9126h1.7345V28.0866H20.47V26.4441H15.031Z"></path><path d="M37.25,8H14.7516A6.5079,6.5079,0,0,0,9.98,9.9809,6.5035,6.5035,0,0,0,8,14.7516V37.25a6.4989,6.4989,0,0,0,1.98,4.7683A6.4961,6.4961,0,0,0,14.7516,44H37.25A6.7653,6.7653,0,0,0,44,37.25V14.7516a6.5092,6.5092,0,0,0-1.9809-4.7707A6.5067,6.5067,0,0,0,37.25,8Zm-7.9908,5.2022h1.57V19.579a3.5888,3.5888,0,0,0,.0228.61c.017.2511.1408.3737.3748.3737.3124,0,.6418-.2408.9859-.7269V13.2011h1.5687v8.6734H32.212v-.9393A2.622,2.622,0,0,1,30.406,21.99.9833.9833,0,0,1,29.4,21.3589a4.3822,4.3822,0,0,1-.1431-1.2892V13.2011h.0023Zm-5.93,2.8136a3.471,3.471,0,0,1,.4918-2.0389,2.1053,2.1053,0,0,1,1.8276-.8905,2.181,2.181,0,0,1,1.8253.8905,3.4622,3.4622,0,0,1,.493,2.0389v3.0464a3.35,3.35,0,0,1-.493,2.04,2.1772,2.1772,0,0,1-1.8253.8893,2.1031,2.1031,0,0,1-1.8276-.8893,3.4666,3.4666,0,0,1-.4918-2.04ZM19.11,10.2274l1.2426,4.5707,1.1949-4.5707h1.7583l-2.11,6.9367v4.7116H19.462V17.1641a32.4488,32.4488,0,0,0-1.0791-3.7029q-.1635-.54-.5384-1.6174-.3765-1.0769-.5622-1.6164ZM38.4206,38.5161a3.282,3.282,0,0,1-.995,1.7106,3.084,3.084,0,0,1-1.77.8212q-3.21.3492-9.6549.35-6.4472,0-9.6571-.35a3.0765,3.0765,0,0,1-1.77-.8212,3.308,3.308,0,0,1-.9962-1.7106,28.8084,28.8084,0,0,1-.468-6.0939,29.53,29.53,0,0,1,.468-6.0951,3.2689,3.2689,0,0,1,.9962-1.7208,3.1327,3.1327,0,0,1,1.7935-.81,95.8344,95.8344,0,0,1,9.6332-.3521,96.113,96.113,0,0,1,9.6549.3521,3.1356,3.1356,0,0,1,1.781.81,3.1851,3.1851,0,0,1,1.0075,1.7208,30.0236,30.0236,0,0,1,.4453,6.0951,28.661,28.661,0,0,1-.468,6.0939Z"></path></svg>